<svg width="27" height="40" viewBox="0 0 27 40" fill="none" xmlns="http://www.w3.org/2000/svg">
<path d="M25.2175 5.24827C24.8932 4.75163 24.4194 4.73736 23.8795 4.72111C23.8183 4.71927 23.7563 4.7174 23.6936 4.7148C23.6458 4.7126 23.5931 4.71345 23.538 4.71434C23.319 4.71785 23.0629 4.72197 22.9339 4.53799C22.7843 4.3247 22.7985 3.91251 22.8102 3.57222C22.8139 3.4647 22.8173 3.36429 22.8153 3.27967C22.7943 2.48919 22.7504 1.6495 22.4453 1.36879C22.2152 1.15818 21.5268 1.18736 20.892 1.21427C20.6862 1.22299 20.486 1.23148 20.3089 1.23148H6.79596C6.52389 1.23148 6.23869 1.20932 5.95847 1.18756C5.41245 1.14514 4.88533 1.10419 4.511 1.23148C3.96775 1.41711 3.93096 2.39254 3.89633 3.31106L3.89446 3.36048C3.86538 4.11876 3.67746 4.70387 3.05465 4.64493C2.33029 4.57749 1.6095 4.55622 1.28199 5.21181C0.89519 5.98749 0.974963 6.79945 1.11785 8.2538C1.13826 8.46154 1.15996 8.6824 1.18177 8.91813H25.4264C25.4403 8.74583 25.455 8.57574 25.4696 8.4084C25.5831 7.09994 25.682 5.95989 25.2175 5.24827Z" fill="#8047F8"/>
<path fill-rule="evenodd" clip-rule="evenodd" d="M3.06987 10.3605C3.44852 15.4853 3.82304 20.616 4.19757 25.7467L4.1978 25.7499C4.40115 28.5357 4.60451 31.3215 4.80853 34.1065H5.58212C5.63483 34.5424 5.69515 35.0806 5.75874 35.648C5.88783 36.7998 6.03044 38.0723 6.15034 38.8542H6.2359C7.02387 38.5659 12.4712 36.2375 12.4736 26.9677C12.4726 26.9412 12.4735 26.9148 12.4762 26.8886H11.1304C11.0653 26.888 11.0021 26.8662 10.9507 26.8267C10.8993 26.7871 10.8624 26.732 10.8458 26.6697C10.7146 26.3457 10.6089 26.0123 10.5295 25.6723C9.73777 26.1194 9.10906 26.8022 8.73296 27.6233C8.37594 26.7824 8.32921 25.8441 8.60093 24.9726C8.87266 24.101 9.44556 23.3515 10.2195 22.8552C10.2295 20.1502 11.2423 17.5427 13.0661 15.5262L13.0946 15.5012C13.1476 15.4554 13.2155 15.4299 13.2859 15.4293C13.3266 15.4297 13.3668 15.4383 13.4039 15.4548C13.4415 15.4715 13.4751 15.4959 13.5026 15.5262C15.3478 17.5454 16.3552 20.178 16.3239 22.8989C17.1123 23.3815 17.6969 24.1304 17.9691 25.0067C18.2413 25.883 18.1827 26.8272 17.8042 27.664C17.4301 26.8416 16.8008 26.1582 16.0076 25.7129C15.9592 26.0425 15.8699 26.3648 15.7419 26.6728C15.6977 26.8042 15.6091 26.8886 15.5205 26.8886H14.0853C14.0876 26.9043 14.0892 26.9201 14.0901 26.9359L14.0907 26.9396V26.9472C14.0912 26.9609 14.0912 26.9746 14.0907 26.9883C14.1104 36.5242 19.902 38.6887 20.3902 38.8542H20.5572C20.5998 38.1031 20.7386 37.0667 20.8739 36.0563C20.9671 35.36 21.0587 34.6761 21.116 34.1065H21.8985C22.149 30.5985 22.4066 27.1004 22.6642 23.6023L22.6644 23.6004L22.6645 23.5993C22.994 19.1248 23.3235 14.6501 23.6381 10.1546H3.11998C3.06092 10.1661 3.06495 10.2627 3.06987 10.3605ZM13.2859 15.4293L13.2844 15.4293H13.2875L13.2859 15.4293Z" fill="#8047F8"/>
<path d="M25.6361 4.97488L25.6362 4.97496C25.9421 5.44355 26.0396 6.01501 26.06 6.58672C26.0802 7.15492 26.0249 7.79241 25.9695 8.4312L25.9677 8.45163C25.9531 8.6192 25.9385 8.78772 25.9248 8.95818L25.8879 9.41813H25.4264H1.18177H0.725891L0.683892 8.96419C0.662232 8.73008 0.640668 8.51058 0.620243 8.30269C0.616446 8.26404 0.612669 8.22571 0.608923 8.18771C0.476313 6.84226 0.38289 5.8944 0.834533 4.98869L0.834695 4.98836C1.0792 4.49892 1.48469 4.26243 1.91262 4.16879C2.3097 4.0819 2.74355 4.1138 3.10101 4.14708L3.10176 4.14715C3.17409 4.154 3.19883 4.14025 3.20247 4.13823L3.2026 4.13816C3.2077 4.13534 3.22936 4.12229 3.25904 4.0683C3.32877 3.94146 3.38088 3.70426 3.39482 3.34161L25.6361 4.97488ZM25.6361 4.97488C25.1677 4.25749 24.4483 4.23708 23.9459 4.22282C23.9285 4.22233 23.9114 4.22184 23.8946 4.22134C23.8333 4.21949 23.7744 4.21771 23.7153 4.21527M25.6361 4.97488L23.7153 4.21527M23.7153 4.21527C23.6521 4.21242 23.5865 4.21349 23.5363 4.2143L23.5299 4.2144C23.4732 4.21531 23.4288 4.21592 23.3869 4.21445C23.3646 4.21366 23.3464 4.21237 23.3316 4.21078C23.3244 4.18133 23.3156 4.1341 23.31 4.06312C23.2989 3.92434 23.3038 3.76548 23.3099 3.58942L23.3102 3.58065C23.3137 3.47984 23.3176 3.36703 23.3152 3.26761L23.3151 3.26638C23.3047 2.87278 23.2882 2.43669 23.2313 2.05867C23.2027 1.86893 23.1617 1.67738 23.0989 1.50415C23.0378 1.33568 22.9428 1.14709 22.7838 1.00082L22.7829 0.999965C22.6362 0.865696 22.4565 0.801741 22.315 0.766686C22.1659 0.729733 22.004 0.711948 21.8483 0.703242C21.5434 0.686193 21.1924 0.70108 20.8852 0.714108L20.8708 0.714718C20.6622 0.72356 20.4733 0.731477 20.3089 0.731477H6.79596C6.54672 0.731477 6.28129 0.711126 5.9972 0.689057L5.9864 0.688218C5.72109 0.667605 5.43629 0.645478 5.1696 0.645879C4.90203 0.646282 4.6132 0.668608 4.35003 0.758095L4.34933 0.758336C3.80289 0.945051 3.60917 1.4924 3.52393 1.89216C3.4334 2.31666 3.41424 2.82589 3.39766 3.26613C3.39734 3.27485 3.39701 3.28353 3.39668 3.29219C3.39668 3.2922 3.39668 3.29221 3.39668 3.29222L3.39483 3.34132L23.7153 4.21527ZM3.6989 25.7831L3.6989 25.7832L3.69913 25.7863C3.69913 25.7863 3.69913 25.7863 3.69913 25.7863C3.90248 28.5721 4.10584 31.358 4.30987 34.143L4.34382 34.6065H4.80853H5.13766C5.1765 34.9422 5.21833 35.3154 5.26185 35.7037L5.26304 35.7143C5.39129 36.8586 5.53467 38.1379 5.65612 38.93L5.72116 39.3542H6.15034H6.2359H6.32451L6.40771 39.3237C6.85704 39.1593 8.50177 38.4624 10.0356 36.5965C11.5758 34.7228 12.9724 31.7085 12.9736 26.9678L12.9736 26.9583L12.9732 26.9487C12.9731 26.946 12.9732 26.9433 12.9735 26.9405L13.0311 26.3886H12.4762H11.2723C11.1678 26.1181 11.0823 25.8407 11.0164 25.5586L10.8646 24.9088L10.2836 25.2369C9.76511 25.5298 9.30896 25.9134 8.93561 26.3661C8.90462 25.9492 8.95182 25.527 9.07827 25.1214C9.31473 24.363 9.81369 23.7094 10.4895 23.276L10.7185 23.1291L10.7195 22.857C10.7288 20.352 11.6393 17.9338 13.2851 16.0332C14.9487 17.9358 15.8529 20.3753 15.8239 22.8932L15.8207 23.1771L16.0629 23.3254C16.7486 23.7451 17.2557 24.3956 17.4916 25.155C17.6208 25.5707 17.664 26.004 17.6228 26.4301C17.2457 25.9662 16.7815 25.574 16.2524 25.2769L15.6187 24.9212L15.5129 25.6402C15.4753 25.896 15.4097 26.1469 15.3171 26.3886H14.0853H13.5081L13.5904 26.9599L13.591 26.9651L13.591 26.9662L13.591 26.9705L13.5907 26.9799L13.5907 26.9893C13.6008 31.8673 15.0907 34.9103 16.686 36.7615C18.2736 38.6038 19.9315 39.2266 20.2297 39.3277L20.3078 39.3542H20.3902H20.5572H21.0296L21.0564 38.8825C21.0977 38.155 21.2332 37.1406 21.3695 36.1227L21.3703 36.1165C21.4399 35.5966 21.5094 35.0776 21.5643 34.6065H21.8985H22.3641L22.3973 34.1421C22.6477 30.6348 22.9053 27.1373 23.1629 23.639L23.1629 23.6385L23.1629 23.6382L23.163 23.6371L23.1631 23.6366L23.1631 23.6361L23.1631 23.636C23.4926 19.1616 23.8222 14.6861 24.1369 10.1895L24.1743 9.65457H23.6381H3.11998H3.07157L3.02406 9.66386C2.655 9.736 2.58739 10.0792 2.57663 10.1499C2.56274 10.2411 2.56791 10.3373 2.57007 10.3775C2.57023 10.3806 2.57038 10.3833 2.5705 10.3857L2.57036 10.3857L2.57123 10.3974C2.94985 15.5218 3.32435 20.6521 3.69887 25.7828L3.6989 25.7831ZM15.2682 26.5131C15.2679 26.5139 15.2679 26.5138 15.2682 26.5129L15.2682 26.5131Z" stroke="#474747"/>
</svg>
